<svg width="113" height="42" viewBox="0 0 113 42" fill="none" xmlns="http://www.w3.org/2000/svg">
<path d="M6 0.5H107C110.038 0.5 112.5 2.96243 112.5 6V23C112.5 26.0376 110.038 28.5 107 28.5H6C2.96244 28.5 0.5 26.0376 0.5 23V6C0.5 2.96243 2.96243 0.5 6 0.5Z" fill="#F0F0F0" stroke="#FF8A8A"/>
<path d="M58.5 41.0141L44.2215 28.2519L72.8003 28.2763L58.5 41.0141Z" fill="#FF8A8A"/>
<path d="M16.6504 21V6.78125H20.6641C21.901 6.78125 22.9948 7.05469 23.9453 7.60156C24.8958 8.14844 25.6283 8.92643 26.1426 9.93555C26.6634 10.9447 26.9271 12.1035 26.9336 13.4121V14.3203C26.9336 15.6615 26.6732 16.8366 26.1523 17.8457C25.638 18.8548 24.8991 19.6296 23.9355 20.1699C22.9785 20.7103 21.862 20.987 20.5859 21H16.6504ZM18.5254 8.32422V19.4668H20.498C21.9434 19.4668 23.0664 19.0176 23.8672 18.1191C24.6745 17.2207 25.0781 15.9414 25.0781 14.2812V13.4512C25.0781 11.8366 24.6973 10.5833 23.9355 9.69141C23.1803 8.79297 22.1061 8.33724 20.7129 8.32422H18.5254ZM36.0156 19.9551C35.3125 20.7819 34.2806 21.1953 32.9199 21.1953C31.7936 21.1953 30.9342 20.8698 30.3418 20.2188C29.7559 19.5612 29.4596 18.5911 29.4531 17.3086V10.4336H31.2598V17.2598C31.2598 18.8613 31.9108 19.6621 33.2129 19.6621C34.5931 19.6621 35.5111 19.1478 35.9668 18.1191V10.4336H37.7734V21H36.0547L36.0156 19.9551ZM49.4531 15.834C49.4531 17.4421 49.0853 18.7376 48.3496 19.7207C47.6139 20.7038 46.6178 21.1953 45.3613 21.1953C44.0788 21.1953 43.0697 20.7884 42.334 19.9746V25.0625H40.5273V10.4336H42.1777L42.2656 11.6055C43.0013 10.694 44.0234 10.2383 45.332 10.2383C46.6016 10.2383 47.6042 10.7168 48.3398 11.6738C49.082 12.6309 49.4531 13.9622 49.4531 15.668V15.834ZM47.6465 15.6289C47.6465 14.4375 47.3926 13.4967 46.8848 12.8066C46.377 12.1165 45.6803 11.7715 44.7949 11.7715C43.7012 11.7715 42.8809 12.2565 42.334 13.2266V18.2754C42.8743 19.2389 43.7012 19.7207 44.8145 19.7207C45.6803 19.7207 46.3672 19.3789 46.875 18.6953C47.3893 18.0052 47.6465 16.9831 47.6465 15.6289ZM53.7207 21H51.9141V6H53.7207V21ZM58.584 21H56.7773V10.4336H58.584V21ZM56.6309 7.63086C56.6309 7.33789 56.7188 7.09049 56.8945 6.88867C57.0768 6.68685 57.3438 6.58594 57.6953 6.58594C58.0469 6.58594 58.3138 6.68685 58.4961 6.88867C58.6784 7.09049 58.7695 7.33789 58.7695 7.63086C58.7695 7.92383 58.6784 8.16797 58.4961 8.36328C58.3138 8.55859 58.0469 8.65625 57.6953 8.65625C57.3438 8.65625 57.0768 8.55859 56.8945 8.36328C56.7188 8.16797 56.6309 7.92383 56.6309 7.63086ZM65.7227 19.7207C66.3672 19.7207 66.9303 19.5254 67.4121 19.1348C67.8939 18.7441 68.1608 18.2559 68.2129 17.6699H69.9219C69.8893 18.2754 69.681 18.8516 69.2969 19.3984C68.9128 19.9453 68.3984 20.3815 67.7539 20.707C67.1159 21.0326 66.4388 21.1953 65.7227 21.1953C64.2839 21.1953 63.138 20.7168 62.2852 19.7598C61.4388 18.7962 61.0156 17.4811 61.0156 15.8145V15.5117C61.0156 14.4831 61.2044 13.5684 61.582 12.7676C61.9596 11.9668 62.5 11.3451 63.2031 10.9023C63.9128 10.4596 64.7493 10.2383 65.7129 10.2383C66.8978 10.2383 67.8809 10.5931 68.6621 11.3027C69.4499 12.0124 69.8698 12.9336 69.9219 14.0664H68.2129C68.1608 13.3828 67.9004 12.8229 67.4316 12.3867C66.9694 11.944 66.3965 11.7227 65.7129 11.7227C64.7949 11.7227 64.082 12.0547 63.5742 12.7188C63.0729 13.3763 62.8223 14.3301 62.8223 15.5801V15.9219C62.8223 17.1393 63.0729 18.0768 63.5742 18.7344C64.0755 19.3919 64.7917 19.7207 65.7227 19.7207ZM78.4766 21C78.3724 20.7917 78.2878 20.4206 78.2227 19.8867C77.3828 20.7591 76.3802 21.1953 75.2148 21.1953C74.1732 21.1953 73.3171 20.9023 72.6465 20.3164C71.9824 19.724 71.6504 18.9753 71.6504 18.0703C71.6504 16.9701 72.0671 16.1172 72.9004 15.5117C73.7402 14.8997 74.9186 14.5938 76.4355 14.5938H78.1934V13.7637C78.1934 13.1322 78.0046 12.6309 77.627 12.2598C77.2493 11.8822 76.6927 11.6934 75.957 11.6934C75.3125 11.6934 74.7721 11.8561 74.3359 12.1816C73.8997 12.5072 73.6816 12.901 73.6816 13.3633H71.8652C71.8652 12.8359 72.0508 12.3281 72.4219 11.8398C72.7995 11.3451 73.3073 10.9544 73.9453 10.668C74.5898 10.3815 75.2962 10.2383 76.0645 10.2383C77.2819 10.2383 78.2357 10.5443 78.9258 11.1562C79.6159 11.7617 79.974 12.5983 80 13.666V18.5293C80 19.4993 80.1237 20.2708 80.3711 20.8438V21H78.4766ZM75.4785 19.623C76.0449 19.623 76.582 19.4766 77.0898 19.1836C77.5977 18.8906 77.9655 18.5098 78.1934 18.041V15.873H76.7773C74.5638 15.873 73.457 16.5208 73.457 17.8164C73.457 18.3828 73.6458 18.8255 74.0234 19.1445C74.401 19.4635 74.8861 19.623 75.4785 19.623ZM85.2832 7.875V10.4336H87.2559V11.8301H85.2832V18.3828C85.2832 18.806 85.3711 19.125 85.5469 19.3398C85.7227 19.5482 86.0221 19.6523 86.4453 19.6523C86.6536 19.6523 86.9401 19.6133 87.3047 19.5352V21C86.8294 21.1302 86.3672 21.1953 85.918 21.1953C85.1107 21.1953 84.502 20.9512 84.0918 20.4629C83.6816 19.9746 83.4766 19.2812 83.4766 18.3828V11.8301H81.5527V10.4336H83.4766V7.875H85.2832ZM93.7598 21.1953C92.3275 21.1953 91.1621 20.7266 90.2637 19.7891C89.3652 18.8451 88.916 17.5853 88.916 16.0098V15.6777C88.916 14.6296 89.1146 13.6953 89.5117 12.875C89.9154 12.0482 90.4753 11.4036 91.1914 10.9414C91.9141 10.4727 92.6953 10.2383 93.5352 10.2383C94.9089 10.2383 95.9766 10.6908 96.7383 11.5957C97.5 12.5007 97.8809 13.7962 97.8809 15.4824V16.2344H90.7227C90.7487 17.276 91.0514 18.1191 91.6309 18.7637C92.2168 19.4017 92.959 19.7207 93.8574 19.7207C94.4954 19.7207 95.0358 19.5905 95.4785 19.3301C95.9212 19.0697 96.3086 18.7246 96.6406 18.2949L97.7441 19.1543C96.8587 20.515 95.5306 21.1953 93.7598 21.1953ZM93.5352 11.7227C92.806 11.7227 92.194 11.9896 91.6992 12.5234C91.2044 13.0508 90.8984 13.793 90.7812 14.75H96.0742V14.6133C96.0221 13.6953 95.7747 12.9857 95.332 12.4844C94.8893 11.9766 94.2904 11.7227 93.5352 11.7227Z" fill="#FF8A8A"/>
</svg>
