<svg width="92" height="92" viewBox="0 0 92 92" fill="none" xmlns="http://www.w3.org/2000/svg">
<mask id="path-1-inside-1" fill="white">
<path fill-rule="evenodd" clip-rule="evenodd" d="M0.171509 42C2.08497 19.7861 19.7861 2.08497 42 0.171501V6.1975C23.1023 8.07378 8.07378 23.1023 6.19751 42H0.171509ZM0.17151 50C2.08497 72.2139 19.7861 89.915 42 91.8285V85.8025C23.1023 83.9262 8.07378 68.8977 6.19751 50H0.17151ZM85.8025 50C83.9262 68.8977 68.8977 83.9262 50 85.8025V91.8285C72.2139 89.915 89.915 72.2139 91.8285 50H85.8025ZM91.8285 42C89.915 19.7861 72.2139 2.08497 50 0.171501V6.1975C68.8977 8.07378 83.9262 23.1023 85.8025 42H91.8285Z"/>
</mask>
<path fill-rule="evenodd" clip-rule="evenodd" d="M0.171509 42C2.08497 19.7861 19.7861 2.08497 42 0.171501V6.1975C23.1023 8.07378 8.07378 23.1023 6.19751 42H0.171509ZM0.17151 50C2.08497 72.2139 19.7861 89.915 42 91.8285V85.8025C23.1023 83.9262 8.07378 68.8977 6.19751 50H0.17151ZM85.8025 50C83.9262 68.8977 68.8977 83.9262 50 85.8025V91.8285C72.2139 89.915 89.915 72.2139 91.8285 50H85.8025ZM91.8285 42C89.915 19.7861 72.2139 2.08497 50 0.171501V6.1975C68.8977 8.07378 83.9262 23.1023 85.8025 42H91.8285Z" fill="black"/>
<path d="M42 0.171501H66V-25.9847L39.9403 -23.74L42 0.171501ZM0.171509 42L-23.7399 39.9403L-25.9847 66H0.171509V42ZM42 6.1975L44.3712 30.0801L66 27.9326V6.1975H42ZM6.19751 42V66H27.9326L30.0801 44.3712L6.19751 42ZM0.17151 50V26H-25.9847L-23.7399 52.0597L0.17151 50ZM42 91.8285L39.9403 115.74L66 117.985V91.8285H42ZM42 85.8025H66V64.0674L44.3712 61.9199L42 85.8025ZM6.19751 50L30.0801 47.6288L27.9326 26H6.19751V50ZM50 85.8025L47.6288 61.9199L26 64.0674L26 85.8025H50ZM85.8025 50V26H64.0674L61.9199 47.6288L85.8025 50ZM50 91.8285H26V117.985L52.0597 115.74L50 91.8285ZM91.8285 50L115.74 52.0597L117.985 26H91.8285V50ZM50 0.171501L52.0597 -23.74L26 -25.9847L26 0.171501H50ZM91.8285 42V66H117.985L115.74 39.9403L91.8285 42ZM50 6.1975H26V27.9326L47.6288 30.0801L50 6.1975ZM85.8025 42L61.9199 44.3712L64.0674 66H85.8025V42ZM39.9403 -23.74C6.09814 -20.8249 -20.8248 6.09814 -23.7399 39.9403L24.083 44.0597C24.9948 33.4741 33.4741 24.9948 44.0597 24.083L39.9403 -23.74ZM66 6.1975V0.171501H18V6.1975H66ZM30.0801 44.3712C30.8265 36.8532 36.8532 30.8265 44.3712 30.0801L39.6288 -17.6851C9.3515 -14.679 -14.679 9.3515 -17.6851 39.6288L30.0801 44.3712ZM0.171509 66H6.19751V18H0.171509V66ZM-23.7399 52.0597C-20.8248 85.9019 6.09814 112.825 39.9403 115.74L44.0597 67.917C33.4741 67.0052 24.9948 58.5259 24.083 47.9403L-23.7399 52.0597ZM66 91.8285V85.8025H18V91.8285H66ZM44.3712 61.9199C36.8532 61.1735 30.8265 55.1468 30.0801 47.6288L-17.6851 52.3712C-14.679 82.6485 9.35151 106.679 39.6288 109.685L44.3712 61.9199ZM6.19751 26H0.17151V74H6.19751V26ZM52.3712 109.685C82.6485 106.679 106.679 82.6485 109.685 52.3712L61.9199 47.6288C61.1735 55.1468 55.1468 61.1735 47.6288 61.9199L52.3712 109.685ZM74 91.8285V85.8025H26V91.8285H74ZM67.9171 47.9403C67.0052 58.5259 58.5259 67.0052 47.9403 67.917L52.0597 115.74C85.9019 112.825 112.825 85.9019 115.74 52.0597L67.9171 47.9403ZM91.8285 26H85.8025V74H91.8285V26ZM47.9403 24.083C58.5259 24.9948 67.0052 33.4741 67.9171 44.0597L115.74 39.9403C112.825 6.09814 85.9019 -20.8249 52.0597 -23.74L47.9403 24.083ZM74 6.1975V0.171501H26V6.1975H74ZM109.685 39.6288C106.679 9.35151 82.6485 -14.679 52.3712 -17.6851L47.6288 30.0801C55.1468 30.8265 61.1735 36.8532 61.9199 44.3712L109.685 39.6288ZM85.8025 66H91.8285V18H85.8025V66Z" fill="#4A90B8" mask="url(#path-1-inside-1)"/>
<path d="M49.82 21.6C54.2067 21.6 57.45 22.5567 59.55 24.47C61.6967 26.3833 62.77 28.88 62.77 31.96C62.77 34.5733 62.0467 36.58 60.6 37.98C59.1533 39.3333 57.0767 40.01 54.37 40.01C53.53 40.01 52.9933 39.94 52.76 39.8C52.5267 39.6133 52.41 39.2633 52.41 38.75C52.41 38.2833 52.3633 37.6767 52.27 36.93C52.2233 36.1833 52.06 35.46 51.78 34.76C51.5 34.06 51.0567 33.4767 50.45 33.01C49.8433 32.4967 49.0033 32.24 47.93 32.24C46.4367 32.24 45.1067 32.7067 43.94 33.64C42.7733 34.5267 42.19 35.6933 42.19 37.14C42.19 38.4 42.6567 39.4267 43.59 40.22C44.57 41.0133 45.7833 41.76 47.23 42.46C48.6767 43.1133 50.24 43.79 51.92 44.49C53.6467 45.19 55.2333 46.1233 56.68 47.29C58.1267 48.41 59.3167 49.8333 60.25 51.56C61.23 53.24 61.72 55.3867 61.72 58C61.72 60.0533 61.37 61.99 60.67 63.81C60.0167 65.5833 59.0133 67.1467 57.66 68.5C56.3533 69.8067 54.6733 70.8333 52.62 71.58C50.6133 72.3267 48.2567 72.7 45.55 72.7C43.2167 72.7 41.0467 72.4433 39.04 71.93C37.08 71.4167 35.3533 70.7867 33.86 70.04C32.4133 69.2467 31.27 68.4067 30.43 67.52C29.59 66.5867 29.17 65.7467 29.17 65C29.17 61.92 29.3333 59.7033 29.66 58.35C30.0333 56.9967 30.6867 56.32 31.62 56.32C32.2733 56.32 32.95 56.6 33.65 57.16C34.3967 57.72 35.2367 58.35 36.17 59.05C37.1033 59.75 38.1767 60.38 39.39 60.94C40.65 61.5 42.0967 61.78 43.73 61.78C44.3833 61.78 45.0133 61.7333 45.62 61.64C46.2733 61.5 46.8333 61.29 47.3 61.01C47.8133 60.73 48.21 60.3567 48.49 59.89C48.8167 59.4233 48.98 58.8633 48.98 58.21C48.98 57.0433 48.5367 56.11 47.65 55.41C46.7633 54.71 45.6433 54.08 44.29 53.52C42.9367 52.9133 41.4667 52.3067 39.88 51.7C38.34 51.0467 36.8933 50.1833 35.54 49.11C34.1867 47.99 33.0667 46.5667 32.18 44.84C31.2933 43.1133 30.85 40.8967 30.85 38.19C30.85 35.1567 31.41 32.59 32.53 30.49C33.6967 28.39 35.1667 26.6867 36.94 25.38C38.76 24.0267 40.79 23.07 43.03 22.51C45.3167 21.9033 47.58 21.6 49.82 21.6Z" fill="#4E4E4E"/>
</svg>
